{
  "source": "C:\\Users\\Peter\\Desktop\\stuff\\MIUN\\quantitative_research\\video_compression\\videos\\BVI-HD\\BVI-HD_CDVL_videos\\ORIG\\Typing_1920x1080_60fps.mp4",
  "output": "C:\\Users\\Peter\\Desktop\\stuff\\MIUN\\quantitative_research\\video_compression\\compressed_videos\\BVI-HD\\av1\\8\\Typing_1920x1080_60fps_av1.mkv",
  "codec": "av1",
  "ok": "Input #0, mov,mp4,m4a,3gp,3g2,mj2, from 'C:\\Users\\Peter\\Desktop\\stuff\\MIUN\\quantitative_research\\video_compression\\videos\\BVI-HD\\BVI-HD_CDVL_videos\\ORIG\\Typing_1920x1080_60fps.mp4':\n  Metadata:\n    major_brand     : isom\n    minor_version   : 512\n    compatible_brands: isomiso2avc1mp41\n    encoder         : Lavf54.28.101\n  Duration: 00:00:05.00, start: 0.000000, bitrate: 203453 kb/s\n  Stream #0:0[0x1](und): Video: h264 (High 4:4:4 Predictive) (avc1 / 0x31637661), yuv420p(progressive), 1920x1080, 203448 kb/s, 60 fps, 60 tbr, 60 tbn (default)\n    Metadata:\n      handler_name    : VideoHandler\n      vendor_id       : [0][0][0][0]\n[out#0/matroska @ 0000027766ec9000] Codec AVOption b:a (set bitrate (in bits/s)) has not been used for any stream. The most likely reason is either wrong type (e.g. a video option with no video streams) or that it is a private option of some decoder which was not actually used for any stream.\nStream mapping:\n  Stream #0:0 -> #0:0 (h264 (native) -> av1 (libsvtav1))\nPress [q] to stop, [?] for help\nSvt[info]: -------------------------------------------\nSvt[info]: SVT [version]:\tSVT-AV1 Encoder Lib v3.1.0-19-g6ecfe8ec\nSvt[info]: SVT [build]  :\tGCC 15.2.0\t 64 bit\nSvt[info]: LIB Build date: Aug 17 2025 11:37:13\nSvt[info]: -------------------------------------------\nSvt[info]: Level of Parallelism: 5\nSvt[info]: Number of PPCS 93\nSvt[info]: [asm level on system : up to avx2]\nSvt[info]: [asm level selected : up to avx2]\nSvt[info]: -------------------------------------------\nSvt[info]: SVT [config]: main profile\ttier (auto)\tlevel (auto)\nSvt[info]: SVT [config]: width / height / fps numerator / fps denominator \t\t: 1920 / 1080 / 60 / 1\nSvt[info]: SVT [config]: bit-depth / color format \t\t\t\t\t: 8 / YUV420\nSvt[info]: SVT [config]: preset / tune / pred struct \t\t\t\t\t: 4 / PSNR / random access\nSvt[info]: SVT [config]: gop size / mini-gop size / key-frame type \t\t\t: 321 / 16 / key frame\nSvt[info]: SVT [config]: BRC mode / target bitrate (kbps)\t\t\t\t: VBR / 8000 \nSvt[info]: SVT [config]: AQ mode / Variance Boost \t\t\t\t\t: 2 / 0\nSvt[info]: SVT [config]: sharpness / luminance-based QP bias \t\t\t\t: 0 / 0\nSvt[info]: SVT [config]: QP scale compress strength \t\t\t\t\t: 0\nSvt[info]: -------------------------------------------\nOutput #0, matroska, to 'C:\\Users\\Peter\\Desktop\\stuff\\MIUN\\quantitative_research\\video_compression\\compressed_videos\\BVI-HD\\av1\\8\\Typing_1920x1080_60fps_av1.mkv':\n  Metadata:\n    major_brand     : isom\n    minor_version   : 512\n    compatible_brands: isomiso2avc1mp41\n    encoder         : Lavf62.3.100\n  Stream #0:0(und): Video: av1 (AV01 / 0x31305641), yuv420p(tv, progressive), 1920x1080, q=2-31, 8000 kb/s, 60 fps, 1k tbn (default)\n    Metadata:\n      encoder         : Lavc62.11.100 libsvtav1\n      handler_name    : VideoHandler\n      vendor_id       : [0][0][0][0]\n    Side data:\n      cpb: bitrate max/min/avg: 0/0/8000000 buffer size: 8000000 vbv_delay: N/A\nframe=    0 fps=0.0 q=0.0 size=       0KiB time=N/A bitrate=N/A speed=N/A elapsed=0:00:01.12    \nframe=    0 fps=0.0 q=0.0 size=       0KiB time=N/A bitrate=N/A speed=N/A elapsed=0:00:01.70    \nframe=    0 fps=0.0 q=0.0 size=       0KiB time=N/A bitrate=N/A speed=N/A elapsed=0:00:02.26    \nframe=    0 fps=0.0 q=0.0 size=       0KiB time=N/A bitrate=N/A speed=N/A elapsed=0:00:02.80    \nframe=    0 fps=0.0 q=0.0 size=       0KiB time=N/A bitrate=N/A speed=N/A elapsed=0:00:03.36    \nframe=    0 fps=0.0 q=0.0 size=       0KiB time=N/A bitrate=N/A speed=N/A elapsed=0:00:03.98    \nframe=    1 fps=0.2 q=2.0 size=       1KiB time=00:00:00.00 bitrate=N/A speed=   0x elapsed=0:00:04.51    \nframe=    1 fps=0.2 q=2.0 size=       1KiB time=00:00:00.00 bitrate=N/A speed=   0x elapsed=0:00:05.09    \nframe=    1 fps=0.2 q=2.0 size=       1KiB time=00:00:00.00 bitrate=N/A speed=   0x elapsed=0:00:05.65    \nframe=    3 fps=0.5 q=20.0 size=       1KiB time=00:00:00.01 bitrate= 341.8kbits/s speed=0.00268x elapsed=0:00:06.20    \nframe=    7 fps=1.0 q=20.0 size=       1KiB time=00:00:00.10 bitrate=  57.0kbits/s speed=0.0148x elapsed=0:00:06.76    \nframe=    8 fps=1.1 q=24.0 size=       1KiB time=00:00:00.11 bitrate=  48.8kbits/s speed=0.0159x elapsed=0:00:07.32    \nframe=   12 fps=1.5 q=23.0 size=       1KiB time=00:00:00.18 bitrate=  31.1kbits/s speed=0.0232x elapsed=0:00:07.90    \nframe=   15 fps=1.8 q=17.0 size=       1KiB time=00:00:00.23 bitrate=  24.4kbits/s speed=0.0276x elapsed=0:00:08.45    \nframe=   20 fps=2.2 q=16.0 size=       1KiB time=00:00:00.30 bitrate=  19.0kbits/s speed=0.0334x elapsed=0:00:08.99    \nframe=   22 fps=2.3 q=14.0 size=       1KiB time=00:00:00.35 bitrate=  16.3kbits/s speed=0.0366x elapsed=0:00:09.56    \nframe=   23 fps=2.3 q=16.0 size=       1KiB time=00:00:00.36 bitrate=  15.5kbits/s speed=0.0363x elapsed=0:00:10.10    \nframe=   25 fps=2.4 q=12.0 size=       1KiB time=00:00:00.40 bitrate=  14.2kbits/s speed=0.0376x elapsed=0:00:10.63    \nframe=   28 fps=2.5 q=14.0 size=       1KiB time=00:00:00.45 bitrate=  12.7kbits/s speed=0.0404x elapsed=0:00:11.14    \nframe=   30 fps=2.6 q=15.0 size=       1KiB time=00:00:00.48 bitrate=  11.8kbits/s speed=0.0412x elapsed=0:00:11.72    \nframe=   34 fps=2.8 q=15.0 size=       1KiB time=00:00:00.53 bitrate=  10.7kbits/s speed=0.0435x elapsed=0:00:12.27    \nframe=   38 fps=3.0 q=14.0 size=       1KiB time=00:00:00.61 bitrate=   9.2kbits/s speed=0.048x elapsed=0:00:12.83    \nframe=   40 fps=3.0 q=14.0 size=       1KiB time=00:00:00.65 bitrate=   8.8kbits/s speed=0.0487x elapsed=0:00:13.35    \nframe=   45 fps=3.2 q=15.0 size=       1KiB time=00:00:00.73 bitrate=   7.8kbits/s speed=0.0528x elapsed=0:00:13.88    \nframe=   48 fps=3.3 q=13.0 size=       1KiB time=00:00:00.78 bitrate=   7.3kbits/s speed=0.0543x elapsed=0:00:14.41    \nframe=   51 fps=3.4 q=13.0 size=       1KiB time=00:00:00.83 bitrate=   6.8kbits/s speed=0.0558x elapsed=0:00:14.93    \nframe=   55 fps=3.6 q=13.0 size=       1KiB time=00:00:00.90 bitrate=   6.3kbits/s speed=0.0583x elapsed=0:00:15.44    \nframe=   58 fps=3.6 q=12.0 size=       1KiB time=00:00:00.95 bitrate=   6.0kbits/s speed=0.0595x elapsed=0:00:15.96    \nframe=   61 fps=3.7 q=13.0 size=       1KiB time=00:00:01.00 bitrate=   5.7kbits/s speed=0.0607x elapsed=0:00:16.48    \nframe=   65 fps=3.8 q=2.0 size=       1KiB time=00:00:01.06 bitrate=   5.3kbits/s speed=0.0626x elapsed=0:00:17.02    \nframe=   69 fps=3.9 q=13.0 size=       1KiB time=00:00:01.11 bitrate=   5.1kbits/s speed=0.0636x elapsed=0:00:17.55    \nframe=   72 fps=4.0 q=14.0 size=       1KiB time=00:00:01.18 bitrate=   4.8kbits/s speed=0.0655x elapsed=0:00:18.07    \nframe=   75 fps=4.0 q=17.0 size=       1KiB time=00:00:01.23 bitrate=   4.6kbits/s speed=0.0662x elapsed=0:00:18.62    \nframe=   79 fps=4.1 q=16.0 size=       1KiB time=00:00:01.30 bitrate=   4.4kbits/s speed=0.0678x elapsed=0:00:19.16    \nframe=   83 fps=4.2 q=13.0 size=       1KiB time=00:00:01.36 bitrate=   4.2kbits/s speed=0.0694x elapsed=0:00:19.67    \nframe=   86 fps=4.3 q=14.0 size=       1KiB time=00:00:01.41 bitrate=   4.0kbits/s speed=0.0701x elapsed=0:00:20.19    \nframe=   90 fps=4.3 q=13.0 size=       1KiB time=00:00:01.48 bitrate=   3.8kbits/s speed=0.0716x elapsed=0:00:20.71    \nframe=   93 fps=4.4 q=14.0 size=       1KiB time=00:00:01.51 bitrate=   3.8kbits/s speed=0.0714x elapsed=0:00:21.23    \nframe=   97 fps=4.5 q=2.0 size=       1KiB time=00:00:01.60 bitrate=   3.6kbits/s speed=0.0734x elapsed=0:00:21.79    \nframe=  102 fps=4.6 q=15.0 size=       1KiB time=00:00:01.68 bitrate=   3.4kbits/s speed=0.0754x elapsed=0:00:22.31    \nframe=  104 fps=4.6 q=15.0 size=       1KiB time=00:00:01.71 bitrate=   3.3kbits/s speed=0.0752x elapsed=0:00:22.82    \nframe=  108 fps=4.6 q=12.0 size=       1KiB time=00:00:01.78 bitrate=   3.2kbits/s speed=0.0764x elapsed=0:00:23.33    \nframe=  112 fps=4.7 q=16.0 size=       1KiB time=00:00:01.85 bitrate=   3.1kbits/s speed=0.0775x elapsed=0:00:23.86    \nframe=  116 fps=4.8 q=12.0 size=       1KiB time=00:00:01.91 bitrate=   3.0kbits/s speed=0.0786x elapsed=0:00:24.39    \nframe=  119 fps=4.8 q=12.0 size=       1KiB time=00:00:01.96 bitrate=   2.9kbits/s speed=0.0789x elapsed=0:00:24.91    \nframe=  122 fps=4.8 q=13.0 size=       1KiB time=00:00:02.01 bitrate=   2.8kbits/s speed=0.0793x elapsed=0:00:25.43    \nframe=  125 fps=4.8 q=13.0 size=       1KiB time=00:00:02.06 bitrate=   2.8kbits/s speed=0.0796x elapsed=0:00:25.97    \nframe=  129 fps=4.9 q=2.0 size=       1KiB time=00:00:02.13 bitrate=   2.7kbits/s speed=0.0806x elapsed=0:00:26.48    \nframe=  134 fps=5.0 q=14.0 size=       1KiB time=00:00:02.21 bitrate=   2.6kbits/s speed=0.0821x elapsed=0:00:26.98    \nframe=  137 fps=5.0 q=6.0 size=       1KiB time=00:00:02.26 bitrate=   2.5kbits/s speed=0.0824x elapsed=0:00:27.51    \nframe=  141 fps=5.0 q=14.0 size=       1KiB time=00:00:02.33 bitrate=   2.4kbits/s speed=0.0832x elapsed=0:00:28.03    \nframe=  147 fps=5.1 q=18.0 size=       1KiB time=00:00:02.43 bitrate=   2.3kbits/s speed=0.0852x elapsed=0:00:28.57    \nframe=  151 fps=5.2 q=18.0 size=       1KiB time=00:00:02.50 bitrate=   2.3kbits/s speed=0.0859x elapsed=0:00:29.09    \nframe=  155 fps=5.2 q=15.0 size=       1KiB time=00:00:02.56 bitrate=   2.2kbits/s speed=0.0866x elapsed=0:00:29.63    \nframe=  159 fps=5.3 q=15.0 size=       1KiB time=00:00:02.63 bitrate=   2.2kbits/s speed=0.0873x elapsed=0:00:30.16    \nframe=  164 fps=5.3 q=13.0 size=       1KiB time=00:00:02.71 bitrate=   2.1kbits/s speed=0.0885x elapsed=0:00:30.70    \nframe=  167 fps=5.3 q=13.0 size=       1KiB time=00:00:02.76 bitrate=   2.1kbits/s speed=0.0885x elapsed=0:00:31.24    \nframe=  172 fps=5.4 q=12.0 size=       1KiB time=00:00:02.85 bitrate=   2.0kbits/s speed=0.0897x elapsed=0:00:31.76    \nframe=  176 fps=5.4 q=13.0 size=       1KiB time=00:00:02.91 bitrate=   2.0kbits/s speed=0.0903x elapsed=0:00:32.30    \nframe=  180 fps=5.5 q=13.0 size=       1KiB time=00:00:02.98 bitrate=   1.9kbits/s speed=0.0909x elapsed=0:00:32.82    \nframe=  183 fps=5.5 q=13.0 size=       1KiB time=00:00:03.03 bitrate=   1.9kbits/s speed=0.091x elapsed=0:00:33.33    \nframe=  187 fps=5.5 q=15.0 size=       1KiB time=00:00:03.10 bitrate=   1.8kbits/s speed=0.0916x elapsed=0:00:33.85    \nframe=  192 fps=5.6 q=16.0 size=       1KiB time=00:00:03.18 bitrate=   1.8kbits/s speed=0.0925x elapsed=0:00:34.40    \nframe=  197 fps=5.6 q=13.0 size=       1KiB time=00:00:03.26 bitrate=   1.7kbits/s speed=0.0936x elapsed=0:00:34.91    \nframe=  199 fps=5.6 q=13.0 size=       1KiB time=00:00:03.30 bitrate=   1.7kbits/s speed=0.0931x elapsed=0:00:35.43    \nframe=  205 fps=5.7 q=12.0 size=       1KiB time=00:00:03.40 bitrate=   1.7kbits/s speed=0.0946x elapsed=0:00:35.95    \nframe=  209 fps=5.7 q=2.0 size=       1KiB time=00:00:03.46 bitrate=   1.6kbits/s speed=0.095x elapsed=0:00:36.49    \nframe=  213 fps=5.8 q=13.0 size=       1KiB time=00:00:03.53 bitrate=   1.6kbits/s speed=0.0955x elapsed=0:00:37.01    \nframe=  217 fps=5.8 q=10.0 size=       1KiB time=00:00:03.60 bitrate=   1.6kbits/s speed=0.0959x elapsed=0:00:37.53    \nframe=  221 fps=5.8 q=14.0 size=       1KiB time=00:00:03.66 bitrate=   1.6kbits/s speed=0.0964x elapsed=0:00:38.04    \nframe=  227 fps=5.9 q=15.0 size=       1KiB time=00:00:03.76 bitrate=   1.5kbits/s speed=0.0975x elapsed=0:00:38.61    \nframe=  233 fps=6.0 q=10.0 size=       1KiB time=00:00:03.86 bitrate=   1.5kbits/s speed=0.0988x elapsed=0:00:39.13    \nframe=  235 fps=5.9 q=15.0 size=       1KiB time=00:00:03.90 bitrate=   1.5kbits/s speed=0.0983x elapsed=0:00:39.65    \nframe=  239 fps=5.9 q=14.0 size=       1KiB time=00:00:03.96 bitrate=   1.4kbits/s speed=0.0987x elapsed=0:00:40.18    \nframe=  245 fps=6.0 q=13.0 size=       1KiB time=00:00:04.06 bitrate=   1.4kbits/s speed=0.0999x elapsed=0:00:40.69    \nframe=  249 fps=6.0 q=10.0 size=       1KiB time=00:00:04.13 bitrate=   1.4kbits/s speed= 0.1x elapsed=0:00:41.22    \nframe=  253 fps=6.1 q=14.0 size=       1KiB time=00:00:04.16 bitrate=   1.4kbits/s speed=0.0999x elapsed=0:00:41.72    \nframe=  257 fps=6.1 q=3.0 size=       1KiB time=00:00:04.26 bitrate=   1.3kbits/s speed=0.101x elapsed=0:00:42.26    \nframe=  261 fps=6.1 q=13.0 size=       1KiB time=00:00:04.33 bitrate=   1.3kbits/s speed=0.101x elapsed=0:00:42.78    \nframe=  265 fps=6.1 q=10.0 size=       1KiB time=00:00:04.40 bitrate=   1.3kbits/s speed=0.102x elapsed=0:00:43.30    \nframe=  269 fps=6.1 q=13.0 size=       1KiB time=00:00:04.46 bitrate=   1.3kbits/s speed=0.102x elapsed=0:00:43.84    \nframe=  273 fps=6.2 q=4.0 size=       1KiB time=00:00:04.53 bitrate=   1.3kbits/s speed=0.102x elapsed=0:00:44.35    \nframe=  279 fps=6.2 q=18.0 size=       1KiB time=00:00:04.63 bitrate=   1.2kbits/s speed=0.103x elapsed=0:00:44.87    \nframe=  281 fps=6.2 q=13.0 size=       1KiB time=00:00:04.66 bitrate=   1.2kbits/s speed=0.103x elapsed=0:00:45.39    \nframe=  293 fps=6.4 q=13.0 size=       1KiB time=00:00:04.86 bitrate=   1.2kbits/s speed=0.106x elapsed=0:00:45.91    \n[out#0/matroska @ 0000027766ec9000] video:4490KiB audio:0KiB subtitle:0KiB other streams:0KiB global headers:0KiB muxing overhead: 0.047106%\nframe=  300 fps=6.5 q=23.0 Lsize=    4492KiB time=00:00:04.98 bitrate=7385.1kbits/s speed=0.108x elapsed=0:00:46.06    \n",
  "seconds": 46.487358808517456,
  "probe_out": {}
}